<svg width="407" height="305" viewBox="0 0 407 305" fill="none" xmlns="http://www.w3.org/2000/svg">
<path d="M134.5 18.0307C131.405 21.3287 128.856 24.5325 128.856 25.0036C128.856 27.7363 145.15 46.959 164.084 66.653L185.294 88.7968L171.367 103.214C163.72 111.035 157.075 117.537 156.529 117.537C156.074 117.537 153.798 115.652 151.613 113.296C149.429 110.941 147.062 109.056 146.334 109.056C145.605 109.056 142.237 111.883 138.687 115.369C134.227 119.893 131.587 123.473 129.766 127.525C126.307 135.535 121.665 140.434 114.473 144.015C109.103 146.559 105.552 149.857 85.3439 170.588C72.6908 183.686 61.3121 195.936 59.9467 197.914C57.1248 202.155 56.1235 209.787 57.853 215.158C59.2185 219.493 73.9652 235.606 78.9718 238.244C83.5233 240.6 91.4428 240.6 95.9033 238.244C97.7239 237.208 110.013 225.241 123.121 211.578C142.601 191.318 147.426 185.759 149.702 181.047C153.616 172.755 156.347 169.834 163.72 166.065C170.547 162.578 183.474 150.517 183.474 147.784C183.474 146.936 181.562 144.298 179.195 141.848L174.826 137.325L189.208 122.437L203.5 107.643L217.792 122.437L232.174 137.325L227.805 141.848C225.438 144.298 223.526 146.936 223.526 147.784C223.526 150.517 236.453 162.578 243.28 166.065C250.653 169.834 253.384 172.755 257.298 181.047C259.574 185.759 264.399 191.318 283.879 211.578C296.987 225.241 309.276 237.208 311.097 238.244C315.557 240.6 323.477 240.6 328.028 238.244C333.035 235.606 347.782 219.493 349.147 215.158C350.877 209.787 349.875 202.155 347.053 197.914C345.688 195.936 334.309 183.591 321.656 170.588C301.448 149.857 297.897 146.559 292.527 143.921C285.153 140.246 280.693 135.44 277.234 127.525C275.413 123.473 272.773 119.893 268.313 115.369C264.763 111.883 261.395 109.056 260.666 109.056C259.938 109.056 257.571 110.941 255.387 113.296C253.202 115.652 250.926 117.537 250.38 117.537C249.197 117.537 222.616 90.0218 222.616 88.7968C222.616 88.3257 234.086 75.9817 248.104 61.4704L273.684 34.9919L273.866 25.1921L274.048 15.298L264.945 15.5807L255.842 15.8634L229.625 42.9072L203.5 69.951L181.38 47.1475C158.896 23.8729 145.605 12 142.055 12C140.781 12 137.959 14.2615 134.5 18.0307ZM155.254 29.8093C155.254 30.1862 153.343 32.4477 150.885 34.8977L146.607 39.3265L141.418 32.4477L136.229 25.6632L139.506 22.1768L142.783 18.6903L148.973 23.9671C152.433 26.794 155.254 29.4324 155.254 29.8093ZM268.131 26.4171V31.317L219.157 82.0123L170.274 132.613L165.45 127.619L160.716 122.719L209.235 72.5894C235.815 45.0745 258.482 22.3652 259.483 22.0825C260.484 21.7998 262.851 21.6114 264.763 21.5172L268.131 21.4229V26.4171ZM194.852 78.9028C192.394 81.447 189.937 83.6142 189.39 83.6142C188.935 83.6142 179.832 74.7567 169.364 63.8261L150.248 44.0379L155.254 38.8553L160.261 33.6727L179.832 53.932L199.404 74.1913L194.852 78.9028ZM241.277 127.902L236.271 133.085L221.979 118.291L207.596 103.402L212.603 98.2198L217.61 93.0372L231.901 107.831L246.284 122.719L241.277 127.902ZM173.005 151.459C171.094 153.532 169 155.228 168.454 155.228C167.999 155.228 160.989 148.444 152.979 140.152L138.505 125.075L142.51 120.835L146.607 116.594L161.626 132.142L176.555 147.69L173.005 151.459ZM254.021 140.152C246.011 148.444 239.001 155.228 238.546 155.228C238 155.228 235.906 153.532 233.995 151.459L230.445 147.69L245.374 132.142L260.393 116.594L264.49 120.835L268.586 125.075L254.021 140.152ZM162.537 158.998C162.537 159.28 160.261 160.694 157.53 162.296L152.524 165.028L141.145 153.344C134.864 146.842 129.766 141.283 129.766 140.906C129.766 140.529 131.041 137.985 132.588 135.346L135.501 130.54L148.973 144.486C156.438 152.213 162.537 158.715 162.537 158.998ZM275.868 137.89L277.598 141.188L266.037 153.155L254.476 165.123L249.652 162.39C247.103 160.882 244.736 159.469 244.463 159.28C244.281 159.092 250.198 152.59 257.662 144.863C272.864 129.127 271.499 129.598 275.868 137.89ZM145.059 176.995C139.962 187.266 139.597 187.455 134.955 182.743C131.678 179.445 130.494 178.786 127.49 178.786C124.031 178.786 123.121 179.634 99.9996 203.474L76.0589 228.256L72.2357 224.204L68.3214 220.247L92.4442 195.276C114.837 172.096 116.476 170.117 116.476 167.007C116.476 164.369 115.657 162.861 112.653 159.657L108.738 155.605L110.741 153.721C111.742 152.779 115.384 150.423 118.752 148.538L124.76 145.24L136.684 157.396L148.7 169.551L145.059 176.995ZM296.168 153.627L298.171 155.605L294.347 159.657C291.343 162.861 290.524 164.369 290.524 167.007C290.524 170.117 292.163 172.096 314.556 195.276L338.679 220.247L334.764 224.204L330.941 228.256L307 203.474C283.879 179.634 282.969 178.786 279.51 178.786C276.506 178.786 275.322 179.445 272.045 182.743C267.312 187.549 267.13 187.361 261.85 176.807L258.3 169.834L270.133 157.49L281.967 145.146L287.975 148.444C291.343 150.234 294.985 152.59 296.168 153.627ZM110.65 167.007C110.65 167.478 100.273 178.692 87.5286 191.884L64.4071 215.724L63.3148 212.331C61.2211 205.547 62.0404 204.416 84.0695 181.424L104.642 159.94L107.646 162.955C109.285 164.651 110.65 166.442 110.65 167.007ZM343.776 205.076C344.596 207.431 344.504 209.222 343.685 212.049L342.593 215.818L319.471 191.884C306.727 178.692 296.35 167.573 296.35 167.101C296.35 166.536 297.624 164.746 299.263 163.05L302.176 159.94L322.475 180.859C336.403 195.276 343.139 202.908 343.776 205.076ZM131.587 187.738L134.682 191.036L115.202 211.295C104.46 222.414 94.3558 232.214 92.8083 232.968C89.1671 234.758 85.0708 234.758 82.7951 232.968C81.1565 231.743 82.3399 230.329 103.823 207.997C116.294 195.087 127.035 184.44 127.49 184.44C128.037 184.44 129.857 185.947 131.587 187.738ZM303.177 207.997C324.66 230.329 325.843 231.743 324.205 232.968C321.929 234.758 317.833 234.758 314.192 232.968C312.644 232.214 302.54 222.414 291.798 211.295L272.318 191.036L275.413 187.738C277.143 185.947 278.963 184.44 279.51 184.44C279.965 184.44 290.706 195.087 303.177 207.997Z" fill="white"/>
<path d="M33.7938 277.2C33.5689 276.471 33.2585 275.819 32.8627 275.244C32.4758 274.659 32.008 274.159 31.4593 273.746C30.9195 273.332 30.2987 273.021 29.597 272.815C28.8953 272.599 28.1307 272.491 27.303 272.491C25.8186 272.491 24.4962 272.864 23.3357 273.611C22.1752 274.357 21.262 275.455 20.5963 276.903C19.9396 278.343 19.6112 280.097 19.6112 282.166C19.6112 284.253 19.9396 286.021 20.5963 287.469C21.253 288.918 22.1662 290.02 23.3357 290.775C24.5052 291.522 25.8636 291.895 27.411 291.895C28.8144 291.895 30.0289 291.626 31.0544 291.086C32.089 290.546 32.8852 289.781 33.4429 288.792C34.0007 287.793 34.2796 286.624 34.2796 285.283L35.4131 285.459H27.9102V281.545H39.124V284.865C39.124 287.231 38.6202 289.278 37.6127 291.005C36.6051 292.732 35.2197 294.064 33.4564 294.999C31.6932 295.926 29.669 296.389 27.384 296.389C24.838 296.389 22.6025 295.818 20.6773 294.675C18.7611 293.524 17.2632 291.891 16.1837 289.777C15.1131 287.654 14.5779 285.135 14.5779 282.22C14.5779 279.989 14.8927 277.996 15.5225 276.242C16.1612 274.488 17.0518 272.999 18.1943 271.775C19.3369 270.543 20.6773 269.607 22.2156 268.969C23.754 268.321 25.4273 267.997 27.2355 267.997C28.7649 267.997 30.1908 268.222 31.5132 268.672C32.8357 269.113 34.0097 269.742 35.0352 270.561C36.0698 271.38 36.92 272.351 37.5857 273.476C38.2514 274.6 38.6877 275.842 38.8946 277.2H33.7938ZM52.9253 296.416C50.8472 296.416 49.0525 295.984 47.5411 295.121C46.0387 294.248 44.8827 293.016 44.0731 291.423C43.2634 289.822 42.8586 287.937 42.8586 285.769C42.8586 283.637 43.2634 281.766 44.0731 280.155C44.8917 278.536 46.0342 277.277 47.5006 276.377C48.967 275.468 50.6898 275.014 52.6689 275.014C53.9464 275.014 55.1519 275.221 56.2854 275.635C57.4279 276.04 58.4355 276.669 59.3082 277.524C60.1898 278.379 60.8825 279.467 61.3863 280.79C61.8901 282.103 62.142 283.668 62.142 285.486V286.984H45.1526V283.691H57.4594C57.4504 282.755 57.248 281.923 56.8522 281.194C56.4564 280.457 55.9031 279.877 55.1924 279.454C54.4907 279.031 53.672 278.819 52.7364 278.819C51.7378 278.819 50.8607 279.062 50.105 279.548C49.3493 280.025 48.7601 280.655 48.3373 281.437C47.9234 282.211 47.712 283.061 47.703 283.988V286.862C47.703 288.068 47.9234 289.102 48.3643 289.966C48.8051 290.82 49.4213 291.477 50.213 291.936C51.0046 292.386 51.9313 292.611 52.9928 292.611C53.7035 292.611 54.3467 292.512 54.9225 292.314C55.4983 292.107 55.9975 291.806 56.4204 291.41C56.8432 291.014 57.1626 290.524 57.3785 289.939L61.9395 290.452C61.6517 291.657 61.1029 292.71 60.2932 293.609C59.4926 294.5 58.467 295.193 57.2165 295.687C55.9661 296.173 54.5357 296.416 52.9253 296.416ZM82.6567 280.763L78.2036 281.248C78.0776 280.799 77.8572 280.376 77.5423 279.98C77.2365 279.584 76.8227 279.265 76.3009 279.022C75.7791 278.779 75.1404 278.658 74.3847 278.658C73.3681 278.658 72.5135 278.878 71.8208 279.319C71.137 279.76 70.7997 280.331 70.8087 281.033C70.7997 281.635 71.0201 282.126 71.4699 282.503C71.9287 282.881 72.6844 283.192 73.737 283.435L77.2725 284.19C79.2336 284.613 80.691 285.283 81.6446 286.201C82.6072 287.119 83.093 288.319 83.102 289.804C83.093 291.108 82.7107 292.26 81.955 293.258C81.2083 294.248 80.1692 295.022 78.8378 295.579C77.5064 296.137 75.977 296.416 74.2497 296.416C71.7128 296.416 69.6707 295.885 68.1233 294.824C66.576 293.753 65.6539 292.264 65.357 290.357L70.1205 289.898C70.3364 290.834 70.7952 291.54 71.4969 292.017C72.1986 292.494 73.1117 292.732 74.2362 292.732C75.3968 292.732 76.3279 292.494 77.0296 292.017C77.7403 291.54 78.0956 290.951 78.0956 290.249C78.0956 289.655 77.8662 289.165 77.4074 288.778C76.9576 288.391 76.2559 288.095 75.3023 287.888L71.7668 287.145C69.7786 286.732 68.3077 286.034 67.3541 285.054C66.4005 284.064 65.9282 282.814 65.9372 281.302C65.9282 280.025 66.2746 278.918 66.9763 277.983C67.687 277.038 68.6721 276.31 69.9316 275.797C71.2 275.275 72.6619 275.014 74.3172 275.014C76.7462 275.014 78.6579 275.531 80.0523 276.566C81.4557 277.601 82.3238 278.999 82.6567 280.763ZM97.4802 275.284V279.062H85.5647V275.284H97.4802ZM88.5065 270.318H93.3914V289.777C93.3914 290.434 93.4904 290.937 93.6883 291.288C93.8952 291.63 94.1651 291.864 94.498 291.99C94.8308 292.116 95.1997 292.179 95.6045 292.179C95.9104 292.179 96.1892 292.156 96.4411 292.111C96.702 292.066 96.8999 292.026 97.0349 291.99L97.858 295.809C97.5972 295.899 97.2238 295.998 96.738 296.106C96.2612 296.214 95.6765 296.277 94.9838 296.295C93.7603 296.331 92.6582 296.146 91.6776 295.741C90.6971 295.328 89.9189 294.689 89.3431 293.825C88.7764 292.962 88.4975 291.882 88.5065 290.587V270.318ZM110.384 296.416C108.36 296.416 106.606 295.971 105.121 295.08C103.637 294.19 102.485 292.944 101.667 291.342C100.857 289.741 100.452 287.87 100.452 285.729C100.452 283.587 100.857 281.712 101.667 280.101C102.485 278.491 103.637 277.241 105.121 276.35C106.606 275.459 108.36 275.014 110.384 275.014C112.408 275.014 114.163 275.459 115.647 276.35C117.131 277.241 118.278 278.491 119.088 280.101C119.907 281.712 120.316 283.587 120.316 285.729C120.316 287.87 119.907 289.741 119.088 291.342C118.278 292.944 117.131 294.19 115.647 295.08C114.163 295.971 112.408 296.416 110.384 296.416ZM110.411 292.503C111.509 292.503 112.426 292.201 113.164 291.599C113.902 290.987 114.45 290.168 114.81 289.143C115.179 288.117 115.364 286.975 115.364 285.715C115.364 284.447 115.179 283.3 114.81 282.274C114.45 281.239 113.902 280.416 113.164 279.805C112.426 279.193 111.509 278.887 110.411 278.887C109.287 278.887 108.351 279.193 107.604 279.805C106.867 280.416 106.313 281.239 105.945 282.274C105.585 283.3 105.405 284.447 105.405 285.715C105.405 286.975 105.585 288.117 105.945 289.143C106.313 290.168 106.867 290.987 107.604 291.599C108.351 292.201 109.287 292.503 110.411 292.503ZM124.462 296.011V275.284H129.199V278.739H129.415C129.792 277.542 130.44 276.62 131.358 275.972C132.284 275.315 133.341 274.987 134.529 274.987C134.799 274.987 135.1 275.001 135.433 275.028C135.775 275.046 136.058 275.077 136.283 275.122V279.616C136.076 279.544 135.748 279.481 135.298 279.427C134.857 279.364 134.43 279.332 134.016 279.332C133.125 279.332 132.325 279.526 131.614 279.913C130.912 280.29 130.359 280.817 129.954 281.491C129.549 282.166 129.347 282.944 129.347 283.826V296.011H124.462ZM156.646 296.376C155.018 296.376 153.56 295.957 152.274 295.121C150.987 294.284 149.971 293.069 149.224 291.477C148.477 289.885 148.104 287.951 148.104 285.675C148.104 283.372 148.482 281.428 149.238 279.845C150.002 278.253 151.032 277.052 152.328 276.242C153.623 275.423 155.067 275.014 156.66 275.014C157.874 275.014 158.873 275.221 159.655 275.635C160.438 276.04 161.059 276.53 161.517 277.106C161.976 277.672 162.332 278.208 162.584 278.712H162.786V268.375H167.684V296.011H162.88V292.746H162.584C162.332 293.249 161.967 293.785 161.491 294.351C161.014 294.909 160.384 295.386 159.601 295.782C158.819 296.178 157.834 296.376 156.646 296.376ZM158.009 292.368C159.044 292.368 159.925 292.089 160.654 291.531C161.383 290.964 161.936 290.177 162.314 289.17C162.691 288.162 162.88 286.988 162.88 285.648C162.88 284.307 162.691 283.142 162.314 282.153C161.945 281.163 161.396 280.394 160.667 279.845C159.948 279.296 159.062 279.022 158.009 279.022C156.92 279.022 156.012 279.305 155.283 279.872C154.554 280.439 154.006 281.221 153.637 282.22C153.268 283.219 153.084 284.361 153.084 285.648C153.084 286.943 153.268 288.099 153.637 289.116C154.015 290.123 154.568 290.919 155.297 291.504C156.034 292.08 156.938 292.368 158.009 292.368ZM182.066 296.416C179.988 296.416 178.193 295.984 176.682 295.121C175.179 294.248 174.023 293.016 173.214 291.423C172.404 289.822 171.999 287.937 171.999 285.769C171.999 283.637 172.404 281.766 173.214 280.155C174.032 278.536 175.175 277.277 176.641 276.377C178.108 275.468 179.83 275.014 181.81 275.014C183.087 275.014 184.293 275.221 185.426 275.635C186.569 276.04 187.576 276.669 188.449 277.524C189.33 278.379 190.023 279.467 190.527 280.79C191.031 282.103 191.283 283.668 191.283 285.486V286.984H174.293V283.691H186.6C186.591 282.755 186.389 281.923 185.993 281.194C185.597 280.457 185.044 279.877 184.333 279.454C183.631 279.031 182.813 278.819 181.877 278.819C180.878 278.819 180.001 279.062 179.246 279.548C178.49 280.025 177.901 280.655 177.478 281.437C177.064 282.211 176.853 283.061 176.844 283.988V286.862C176.844 288.068 177.064 289.102 177.505 289.966C177.946 290.82 178.562 291.477 179.354 291.936C180.145 292.386 181.072 292.611 182.133 292.611C182.844 292.611 183.487 292.512 184.063 292.314C184.639 292.107 185.138 291.806 185.561 291.41C185.984 291.014 186.303 290.524 186.519 289.939L191.08 290.452C190.792 291.657 190.244 292.71 189.434 293.609C188.633 294.5 187.608 295.193 186.357 295.687C185.107 296.173 183.676 296.416 182.066 296.416ZM204.841 296.011V275.284H209.726V296.011H204.841ZM207.297 272.342C206.523 272.342 205.858 272.086 205.3 271.573C204.742 271.051 204.463 270.426 204.463 269.697C204.463 268.96 204.742 268.334 205.3 267.822C205.858 267.3 206.523 267.039 207.297 267.039C208.08 267.039 208.745 267.3 209.294 267.822C209.852 268.334 210.131 268.96 210.131 269.697C210.131 270.426 209.852 271.051 209.294 271.573C208.745 272.086 208.08 272.342 207.297 272.342ZM219.634 283.866V296.011H214.749V275.284H219.418V278.806H219.661C220.138 277.645 220.898 276.723 221.942 276.04C222.994 275.356 224.294 275.014 225.842 275.014C227.272 275.014 228.518 275.32 229.579 275.932C230.65 276.543 231.478 277.43 232.062 278.59C232.656 279.751 232.949 281.159 232.94 282.814V296.011H228.055V283.569C228.055 282.184 227.695 281.1 226.975 280.317C226.264 279.535 225.279 279.143 224.02 279.143C223.165 279.143 222.405 279.332 221.739 279.71C221.083 280.079 220.565 280.614 220.187 281.316C219.819 282.018 219.634 282.868 219.634 283.866ZM246.947 296.416C244.878 296.416 243.101 295.962 241.616 295.053C240.141 294.145 239.003 292.89 238.202 291.288C237.411 289.678 237.015 287.825 237.015 285.729C237.015 283.623 237.42 281.766 238.229 280.155C239.039 278.536 240.181 277.277 241.657 276.377C243.141 275.468 244.896 275.014 246.92 275.014C248.602 275.014 250.091 275.324 251.386 275.945C252.691 276.557 253.73 277.425 254.503 278.55C255.277 279.665 255.718 280.97 255.826 282.463H251.157C250.968 281.464 250.518 280.632 249.807 279.967C249.106 279.292 248.166 278.954 246.987 278.954C245.989 278.954 245.111 279.224 244.356 279.764C243.6 280.295 243.011 281.06 242.588 282.058C242.174 283.057 241.967 284.253 241.967 285.648C241.967 287.06 242.174 288.275 242.588 289.291C243.002 290.299 243.582 291.077 244.329 291.626C245.084 292.165 245.971 292.435 246.987 292.435C247.707 292.435 248.35 292.3 248.917 292.03C249.493 291.752 249.974 291.351 250.361 290.829C250.748 290.308 251.013 289.673 251.157 288.927H255.826C255.709 290.393 255.277 291.693 254.53 292.827C253.784 293.951 252.767 294.833 251.481 295.471C250.194 296.101 248.683 296.416 246.947 296.416ZM259.837 296.011V275.284H264.722V296.011H259.837ZM262.293 272.342C261.519 272.342 260.854 272.086 260.296 271.573C259.738 271.051 259.459 270.426 259.459 269.697C259.459 268.96 259.738 268.334 260.296 267.822C260.854 267.3 261.519 267.039 262.293 267.039C263.076 267.039 263.741 267.3 264.29 267.822C264.848 268.334 265.127 268.96 265.127 269.697C265.127 270.426 264.848 271.051 264.29 271.573C263.741 272.086 263.076 272.342 262.293 272.342ZM277.437 296.376C275.809 296.376 274.351 295.957 273.065 295.121C271.778 294.284 270.762 293.069 270.015 291.477C269.268 289.885 268.895 287.951 268.895 285.675C268.895 283.372 269.273 281.428 270.029 279.845C270.793 278.253 271.823 277.052 273.119 276.242C274.414 275.423 275.858 275.014 277.451 275.014C278.665 275.014 279.664 275.221 280.446 275.635C281.229 276.04 281.85 276.53 282.309 277.106C282.767 277.672 283.123 278.208 283.375 278.712H283.577V268.375H288.475V296.011H283.671V292.746H283.375C283.123 293.249 282.758 293.785 282.282 294.351C281.805 294.909 281.175 295.386 280.392 295.782C279.61 296.178 278.625 296.376 277.437 296.376ZM278.8 292.368C279.835 292.368 280.716 292.089 281.445 291.531C282.174 290.964 282.727 290.177 283.105 289.17C283.483 288.162 283.671 286.988 283.671 285.648C283.671 284.307 283.483 283.142 283.105 282.153C282.736 281.163 282.187 280.394 281.458 279.845C280.739 279.296 279.853 279.022 278.8 279.022C277.711 279.022 276.803 279.305 276.074 279.872C275.345 280.439 274.797 281.221 274.428 282.22C274.059 283.219 273.875 284.361 273.875 285.648C273.875 286.943 274.059 288.099 274.428 289.116C274.806 290.123 275.359 290.919 276.088 291.504C276.825 292.08 277.729 292.368 278.8 292.368ZM302.857 296.416C300.779 296.416 298.984 295.984 297.473 295.121C295.97 294.248 294.814 293.016 294.005 291.423C293.195 289.822 292.79 287.937 292.79 285.769C292.79 283.637 293.195 281.766 294.005 280.155C294.823 278.536 295.966 277.277 297.432 276.377C298.899 275.468 300.621 275.014 302.601 275.014C303.878 275.014 305.084 275.221 306.217 275.635C307.36 276.04 308.367 276.669 309.24 277.524C310.121 278.379 310.814 279.467 311.318 280.79C311.822 282.103 312.074 283.668 312.074 285.486V286.984H295.084V283.691H307.391C307.382 282.755 307.18 281.923 306.784 281.194C306.388 280.457 305.835 279.877 305.124 279.454C304.422 279.031 303.604 278.819 302.668 278.819C301.669 278.819 300.792 279.062 300.037 279.548C299.281 280.025 298.692 280.655 298.269 281.437C297.855 282.211 297.644 283.061 297.635 283.988V286.862C297.635 288.068 297.855 289.102 298.296 289.966C298.737 290.82 299.353 291.477 300.145 291.936C300.936 292.386 301.863 292.611 302.924 292.611C303.635 292.611 304.278 292.512 304.854 292.314C305.43 292.107 305.929 291.806 306.352 291.41C306.775 291.014 307.094 290.524 307.31 289.939L311.871 290.452C311.583 291.657 311.035 292.71 310.225 293.609C309.424 294.5 308.399 295.193 307.148 295.687C305.898 296.173 304.467 296.416 302.857 296.416ZM321.091 283.866V296.011H316.206V275.284H320.875V278.806H321.118C321.595 277.645 322.355 276.723 323.399 276.04C324.451 275.356 325.751 275.014 327.299 275.014C328.729 275.014 329.975 275.32 331.036 275.932C332.107 276.543 332.935 277.43 333.519 278.59C334.113 279.751 334.406 281.159 334.397 282.814V296.011H329.512V283.569C329.512 282.184 329.152 281.1 328.432 280.317C327.721 279.535 326.736 279.143 325.477 279.143C324.622 279.143 323.862 279.332 323.196 279.71C322.54 280.079 322.022 280.614 321.644 281.316C321.276 282.018 321.091 282.868 321.091 283.866ZM349.713 275.284V279.062H337.797V275.284H349.713ZM340.739 270.318H345.624V289.777C345.624 290.434 345.723 290.937 345.921 291.288C346.128 291.63 346.398 291.864 346.73 291.99C347.063 292.116 347.432 292.179 347.837 292.179C348.143 292.179 348.422 292.156 348.674 292.111C348.934 292.066 349.132 292.026 349.267 291.99L350.09 295.809C349.83 295.899 349.456 295.998 348.97 296.106C348.494 296.214 347.909 296.277 347.216 296.295C345.993 296.331 344.891 296.146 343.91 295.741C342.929 295.328 342.151 294.689 341.576 293.825C341.009 292.962 340.73 291.882 340.739 290.587V270.318ZM362.752 296.416C360.673 296.416 358.879 295.984 357.367 295.121C355.865 294.248 354.709 293.016 353.899 291.423C353.09 289.822 352.685 287.937 352.685 285.769C352.685 283.637 353.09 281.766 353.899 280.155C354.718 278.536 355.86 277.277 357.327 276.377C358.793 275.468 360.516 275.014 362.495 275.014C363.773 275.014 364.978 275.221 366.112 275.635C367.254 276.04 368.262 276.669 369.134 277.524C370.016 278.379 370.709 279.467 371.212 280.79C371.716 282.103 371.968 283.668 371.968 285.486V286.984H354.979V283.691H367.286C367.277 282.755 367.074 281.923 366.678 281.194C366.283 280.457 365.729 279.877 365.019 279.454C364.317 279.031 363.498 278.819 362.563 278.819C361.564 278.819 360.687 279.062 359.931 279.548C359.176 280.025 358.586 280.655 358.163 281.437C357.75 282.211 357.538 283.061 357.529 283.988V286.862C357.529 288.068 357.75 289.102 358.19 289.966C358.631 290.82 359.247 291.477 360.039 291.936C360.831 292.386 361.757 292.611 362.819 292.611C363.53 292.611 364.173 292.512 364.749 292.314C365.324 292.107 365.824 291.806 366.247 291.41C366.669 291.014 366.989 290.524 367.205 289.939L371.766 290.452C371.478 291.657 370.929 292.71 370.119 293.609C369.319 294.5 368.293 295.193 367.043 295.687C365.792 296.173 364.362 296.416 362.752 296.416ZM392.483 280.763L388.03 281.248C387.904 280.799 387.683 280.376 387.369 279.98C387.063 279.584 386.649 279.265 386.127 279.022C385.605 278.779 384.967 278.658 384.211 278.658C383.194 278.658 382.34 278.878 381.647 279.319C380.963 279.76 380.626 280.331 380.635 281.033C380.626 281.635 380.846 282.126 381.296 282.503C381.755 282.881 382.511 283.192 383.563 283.435L387.099 284.19C389.06 284.613 390.517 285.283 391.471 286.201C392.433 287.119 392.919 288.319 392.928 289.804C392.919 291.108 392.537 292.26 391.781 293.258C391.034 294.248 389.995 295.022 388.664 295.579C387.333 296.137 385.803 296.416 384.076 296.416C381.539 296.416 379.497 295.885 377.949 294.824C376.402 293.753 375.48 292.264 375.183 290.357L379.947 289.898C380.163 290.834 380.621 291.54 381.323 292.017C382.025 292.494 382.938 292.732 384.062 292.732C385.223 292.732 386.154 292.494 386.856 292.017C387.566 291.54 387.922 290.951 387.922 290.249C387.922 289.655 387.692 289.165 387.234 288.778C386.784 288.391 386.082 288.095 385.128 287.888L381.593 287.145C379.605 286.732 378.134 286.034 377.18 285.054C376.227 284.064 375.754 282.814 375.763 281.302C375.754 280.025 376.101 278.918 376.802 277.983C377.513 277.038 378.498 276.31 379.758 275.797C381.026 275.275 382.488 275.014 384.143 275.014C386.572 275.014 388.484 275.531 389.878 276.566C391.282 277.601 392.15 278.999 392.483 280.763Z" fill="white"/>
</svg>
