<svg width="64" height="64" viewBox="0 0 64 64" fill="none" xmlns="http://www.w3.org/2000/svg">
<g clip-path="url(#clip0_195_2)">
<path d="M58.6613 64H50.6667C49.192 64 48 62.8053 48 61.3333C48 59.8613 49.192 58.6667 50.6667 58.6667H58.6613L42.6853 31.9867L26.656 58.6933L34.6667 58.6667C36.1413 58.6667 37.3333 59.8613 37.3333 61.3333C37.3333 62.8053 36.1413 64 34.6667 64H26.6693C24.736 64 23.008 63 22.0453 61.3227C21.0827 59.648 21.088 57.6507 22.0613 55.9787L38.0693 29.2453C39.024 27.6133 40.7467 26.6267 42.664 26.6267C44.5813 26.6267 46.3013 27.616 47.272 29.272L63.2507 55.9547C64.2427 57.6507 64.248 59.648 63.2853 61.3253C62.3227 63.0027 60.592 64 58.6613 64ZM45.3333 53.3333V45.3333C45.3333 43.8613 44.1413 42.6667 42.6667 42.6667C41.192 42.6667 40 43.8613 40 45.3333V53.3333C40 54.8053 41.192 56 42.6667 56C44.1413 56 45.3333 54.8053 45.3333 53.3333ZM16 61.3333C16 59.8613 14.8053 58.6667 13.3333 58.6667C8.92267 58.6667 5.33333 55.0773 5.33333 50.6667V13.3333C5.33333 8.92267 8.92267 5.33333 13.3333 5.33333H50.6667C55.0773 5.33333 58.6667 8.92267 58.6667 13.3333V37.3333C58.6667 38.8053 59.8587 40 61.3333 40C62.808 40 64 38.8053 64 37.3333V13.3333C64 5.98133 58.0187 0 50.6667 0H13.3333C5.98133 0 0 5.98133 0 13.3333V50.6667C0 58.0187 5.98133 64 13.3333 64C14.8053 64 16 62.8053 16 61.3333ZM13.3333 10.6667C11.8613 10.6667 10.6667 11.8613 10.6667 13.3333C10.6667 14.8053 11.8613 16 13.3333 16C14.8053 16 16 14.8053 16 13.3333C16 11.8613 14.8053 10.6667 13.3333 10.6667ZM24 10.6667C22.528 10.6667 21.3333 11.8613 21.3333 13.3333C21.3333 14.8053 22.528 16 24 16C25.472 16 26.6667 14.8053 26.6667 13.3333C26.6667 11.8613 25.472 10.6667 24 10.6667ZM42.6667 58.6667C41.1947 58.6667 40 59.8613 40 61.3333C40 62.8053 41.1947 64 42.6667 64C44.1387 64 45.3333 62.8053 45.3333 61.3333C45.3333 59.8613 44.1387 58.6667 42.6667 58.6667Z" fill="#A9DFD8"/>
</g>
<defs>
<clipPath id="clip0_195_2">
<rect width="64" height="64" fill="white"/>
</clipPath>
</defs>
</svg>
