<svg width="511" height="180" viewBox="0 0 511 180" fill="none" xmlns="http://www.w3.org/2000/svg">
<g clip-path="url(#clip0_88_63)">
<path d="M142.989 156H126.5C123.459 156 121 153.536 121 150.5C121 147.464 123.459 145 126.5 145H142.989L110.038 89.9725L76.978 145.055L93.5 145C96.5415 145 99 147.464 99 150.5C99 153.536 96.5415 156 93.5 156H77.0055C73.018 156 69.454 153.938 67.4685 150.478C65.483 147.024 65.494 142.905 67.5015 139.456L100.518 84.3185C102.487 80.9525 106.04 78.9175 109.994 78.9175C113.949 78.9175 117.496 80.958 119.498 84.3735L152.454 139.407C154.501 142.905 154.512 147.024 152.526 150.484C150.54 153.943 146.971 156 142.989 156ZM115.5 134V117.5C115.5 114.464 113.041 112 110 112C106.959 112 104.5 114.464 104.5 117.5V134C104.5 137.036 106.959 139.5 110 139.5C113.041 139.5 115.5 137.036 115.5 134ZM55 150.5C55 147.464 52.536 145 49.5 145C40.403 145 33 137.597 33 128.5V51.5C33 42.403 40.403 35 49.5 35H126.5C135.597 35 143 42.403 143 51.5V101C143 104.036 145.459 106.5 148.5 106.5C151.542 106.5 154 104.036 154 101V51.5C154 36.3365 141.663 24 126.5 24H49.5C34.3365 24 22 36.3365 22 51.5V128.5C22 143.664 34.3365 156 49.5 156C52.536 156 55 153.536 55 150.5ZM49.5 46C46.464 46 44 48.464 44 51.5C44 54.536 46.464 57 49.5 57C52.536 57 55 54.536 55 51.5C55 48.464 52.536 46 49.5 46ZM71.5 46C68.464 46 66 48.464 66 51.5C66 54.536 68.464 57 71.5 57C74.536 57 77 54.536 77 51.5C77 48.464 74.536 46 71.5 46ZM110 145C106.964 145 104.5 147.464 104.5 150.5C104.5 153.536 106.964 156 110 156C113.036 156 115.5 153.536 115.5 150.5C115.5 147.464 113.036 145 110 145Z" fill="#A9DFD8"/>
</g>
<path d="M218.037 48.1392C217.652 46.9328 217.135 45.8523 216.486 44.8977C215.849 43.9299 215.087 43.108 214.199 42.4318C213.311 41.7424 212.296 41.2187 211.156 40.8608C210.029 40.5028 208.79 40.3239 207.438 40.3239C205.144 40.3239 203.076 40.9138 201.233 42.0938C199.39 43.2737 197.932 45.0038 196.858 47.2841C195.797 49.5511 195.267 52.3286 195.267 55.6165C195.267 58.9176 195.804 61.7083 196.878 63.9886C197.952 66.2689 199.423 67.9991 201.293 69.179C203.162 70.3589 205.29 70.9489 207.676 70.9489C209.89 70.9489 211.819 70.4981 213.463 69.5966C215.12 68.6951 216.4 67.4223 217.301 65.7784C218.216 64.1212 218.673 62.1723 218.673 59.9318L220.264 60.2301H208.611V55.1591H224.619V59.7926C224.619 63.2131 223.89 66.1828 222.432 68.7017C220.987 71.2074 218.985 73.143 216.426 74.5085C213.881 75.8741 210.964 76.5568 207.676 76.5568C203.991 76.5568 200.756 75.7083 197.972 74.0114C195.201 72.3144 193.04 69.9081 191.489 66.7926C189.938 63.6638 189.162 59.9517 189.162 55.6562C189.162 52.4081 189.613 49.4915 190.514 46.9062C191.416 44.321 192.682 42.1269 194.312 40.3239C195.956 38.5076 197.885 37.1222 200.099 36.1676C202.327 35.1998 204.759 34.7159 207.398 34.7159C209.598 34.7159 211.647 35.0407 213.543 35.6903C215.452 36.34 217.149 37.2614 218.634 38.4545C220.132 39.6477 221.371 41.0663 222.352 42.7102C223.333 44.3409 223.996 46.1506 224.341 48.1392H218.037ZM245.107 76.6165C242.098 76.6165 239.506 75.9735 237.332 74.6875C235.171 73.3883 233.5 71.5653 232.32 69.2188C231.154 66.8589 230.57 64.0947 230.57 60.9261C230.57 57.7973 231.154 55.0398 232.32 52.6534C233.5 50.267 235.144 48.4044 237.252 47.0653C239.373 45.7263 241.853 45.0568 244.69 45.0568C246.413 45.0568 248.084 45.3419 249.701 45.9119C251.318 46.482 252.77 47.3769 254.056 48.5966C255.342 49.8163 256.356 51.4006 257.099 53.3494C257.841 55.285 258.212 57.6383 258.212 60.4091V62.517H233.931V58.0625H252.386C252.386 56.4981 252.067 55.1127 251.431 53.9062C250.795 52.6866 249.9 51.7254 248.746 51.0227C247.606 50.3201 246.267 49.9688 244.729 49.9688C243.059 49.9688 241.601 50.3797 240.354 51.2017C239.121 52.0104 238.167 53.071 237.491 54.3835C236.828 55.6828 236.496 57.0947 236.496 58.6193V62.0994C236.496 64.1411 236.854 65.8778 237.57 67.3097C238.299 68.7415 239.314 69.8352 240.613 70.5909C241.912 71.3333 243.43 71.7045 245.167 71.7045C246.294 71.7045 247.321 71.5455 248.249 71.2273C249.177 70.8958 249.979 70.4053 250.656 69.7557C251.332 69.1061 251.849 68.304 252.207 67.3494L257.835 68.3636C257.384 70.0208 256.575 71.4725 255.408 72.7188C254.255 73.9517 252.803 74.9129 251.053 75.6023C249.317 76.2784 247.335 76.6165 245.107 76.6165ZM287.699 52.9119L282.31 53.8665C282.084 53.1771 281.726 52.5208 281.236 51.8977C280.759 51.2746 280.109 50.7642 279.287 50.3665C278.465 49.9687 277.438 49.7699 276.205 49.7699C274.521 49.7699 273.116 50.1477 271.989 50.9034C270.862 51.6458 270.298 52.607 270.298 53.7869C270.298 54.8078 270.676 55.6297 271.432 56.2528C272.188 56.8759 273.407 57.3864 275.091 57.7841L279.943 58.8977C282.754 59.5473 284.848 60.5483 286.227 61.9006C287.606 63.2528 288.295 65.0095 288.295 67.1705C288.295 69 287.765 70.6307 286.705 72.0625C285.657 73.4811 284.192 74.5947 282.31 75.4034C280.44 76.2121 278.273 76.6165 275.807 76.6165C272.386 76.6165 269.596 75.8873 267.435 74.429C265.274 72.9574 263.948 70.8693 263.457 68.1648L269.205 67.2898C269.563 68.7879 270.298 69.9214 271.412 70.6903C272.526 71.446 273.977 71.8239 275.767 71.8239C277.716 71.8239 279.274 71.4195 280.44 70.6108C281.607 69.7888 282.19 68.7879 282.19 67.608C282.19 66.6534 281.832 65.8513 281.116 65.2017C280.414 64.5521 279.333 64.0616 277.875 63.7301L272.705 62.5966C269.854 61.947 267.746 60.9129 266.381 59.4943C265.028 58.0758 264.352 56.2794 264.352 54.1051C264.352 52.3021 264.856 50.7244 265.864 49.3722C266.871 48.0199 268.263 46.9659 270.04 46.2102C271.816 45.4413 273.851 45.0568 276.145 45.0568C279.446 45.0568 282.045 45.7727 283.94 47.2045C285.836 48.6231 287.089 50.5256 287.699 52.9119ZM309.092 45.4545V50.2273H292.407V45.4545H309.092ZM296.881 38.1364H302.827V67.0312C302.827 68.1847 303 69.053 303.344 69.6364C303.689 70.2064 304.133 70.5975 304.677 70.8097C305.234 71.0085 305.837 71.108 306.487 71.108C306.964 71.108 307.381 71.0748 307.739 71.0085C308.097 70.9422 308.376 70.8892 308.575 70.8494L309.648 75.7614C309.304 75.8939 308.813 76.0265 308.177 76.1591C307.54 76.3049 306.745 76.3845 305.79 76.3977C304.226 76.4242 302.768 76.1458 301.415 75.5625C300.063 74.9792 298.969 74.0777 298.134 72.858C297.299 71.6383 296.881 70.107 296.881 68.2642V38.1364ZM328.207 76.6165C325.344 76.6165 322.845 75.9602 320.71 74.6477C318.576 73.3352 316.919 71.4991 315.739 69.1392C314.559 66.7794 313.969 64.0218 313.969 60.8665C313.969 57.6979 314.559 54.9271 315.739 52.554C316.919 50.1809 318.576 48.3381 320.71 47.0256C322.845 45.7131 325.344 45.0568 328.207 45.0568C331.071 45.0568 333.57 45.7131 335.705 47.0256C337.839 48.3381 339.496 50.1809 340.676 52.554C341.856 54.9271 342.446 57.6979 342.446 60.8665C342.446 64.0218 341.856 66.7794 340.676 69.1392C339.496 71.4991 337.839 73.3352 335.705 74.6477C333.57 75.9602 331.071 76.6165 328.207 76.6165ZM328.227 71.625C330.083 71.625 331.621 71.1345 332.841 70.1534C334.061 69.1723 334.962 67.8665 335.545 66.2358C336.142 64.6051 336.44 62.8087 336.44 60.8466C336.44 58.8977 336.142 57.108 335.545 55.4773C334.962 53.8333 334.061 52.5142 332.841 51.5199C331.621 50.5256 330.083 50.0284 328.227 50.0284C326.358 50.0284 324.807 50.5256 323.574 51.5199C322.354 52.5142 321.446 53.8333 320.849 55.4773C320.266 57.108 319.974 58.8977 319.974 60.8466C319.974 62.8087 320.266 64.6051 320.849 66.2358C321.446 67.8665 322.354 69.1723 323.574 70.1534C324.807 71.1345 326.358 71.625 328.227 71.625ZM349.083 76V45.4545H354.83V50.3068H355.148C355.705 48.6629 356.686 47.3703 358.092 46.429C359.51 45.4744 361.114 44.9972 362.904 44.9972C363.275 44.9972 363.713 45.0104 364.217 45.0369C364.734 45.0634 365.138 45.0966 365.43 45.1364V50.8239C365.191 50.7576 364.767 50.6847 364.157 50.6051C363.547 50.5123 362.937 50.4659 362.327 50.4659C360.922 50.4659 359.669 50.7642 358.569 51.3608C357.482 51.9441 356.62 52.7595 355.984 53.8068C355.347 54.8409 355.029 56.0208 355.029 57.3466V76H349.083ZM396.83 76.5966C394.364 76.5966 392.164 75.9669 390.228 74.7074C388.306 73.4347 386.794 71.625 385.694 69.2784C384.607 66.9186 384.063 64.0881 384.063 60.7869C384.063 57.4858 384.613 54.6619 385.714 52.3153C386.827 49.9687 388.352 48.1723 390.288 46.9261C392.223 45.6799 394.417 45.0568 396.87 45.0568C398.766 45.0568 400.29 45.375 401.444 46.0114C402.611 46.6345 403.512 47.3636 404.148 48.1989C404.798 49.0341 405.302 49.7699 405.66 50.4062H406.018V35.2727H411.964V76H406.157V71.2472H405.66C405.302 71.8968 404.785 72.6392 404.109 73.4744C403.446 74.3097 402.531 75.0388 401.364 75.6619C400.198 76.285 398.686 76.5966 396.83 76.5966ZM398.143 71.5256C399.853 71.5256 401.298 71.0748 402.478 70.1733C403.671 69.2585 404.573 67.9924 405.183 66.375C405.806 64.7576 406.117 62.875 406.117 60.7273C406.117 58.6061 405.812 56.75 405.202 55.1591C404.593 53.5682 403.698 52.3286 402.518 51.4403C401.338 50.5521 399.879 50.108 398.143 50.108C396.353 50.108 394.862 50.572 393.668 51.5C392.475 52.428 391.574 53.6941 390.964 55.2983C390.367 56.9025 390.069 58.7121 390.069 60.7273C390.069 62.7689 390.374 64.6051 390.984 66.2358C391.594 67.8665 392.495 69.1591 393.688 70.1136C394.895 71.0549 396.379 71.5256 398.143 71.5256ZM433.615 76.6165C430.606 76.6165 428.014 75.9735 425.839 74.6875C423.679 73.3883 422.008 71.5653 420.828 69.2188C419.661 66.8589 419.078 64.0947 419.078 60.9261C419.078 57.7973 419.661 55.0398 420.828 52.6534C422.008 50.267 423.652 48.4044 425.76 47.0653C427.881 45.7263 430.36 45.0568 433.197 45.0568C434.921 45.0568 436.591 45.3419 438.209 45.9119C439.826 46.482 441.278 47.3769 442.564 48.5966C443.85 49.8163 444.864 51.4006 445.607 53.3494C446.349 55.285 446.72 57.6383 446.72 60.4091V62.517H422.439V58.0625H440.893C440.893 56.4981 440.575 55.1127 439.939 53.9062C439.303 52.6866 438.408 51.7254 437.254 51.0227C436.114 50.3201 434.775 49.9688 433.237 49.9688C431.567 49.9688 430.108 50.3797 428.862 51.2017C427.629 52.0104 426.675 53.071 425.999 54.3835C425.336 55.6828 425.004 57.0947 425.004 58.6193V62.0994C425.004 64.1411 425.362 65.8778 426.078 67.3097C426.807 68.7415 427.821 69.8352 429.121 70.5909C430.42 71.3333 431.938 71.7045 433.675 71.7045C434.802 71.7045 435.829 71.5455 436.757 71.2273C437.685 70.8958 438.487 70.4053 439.163 69.7557C439.839 69.1061 440.357 68.304 440.714 67.3494L446.342 68.3636C445.892 70.0208 445.083 71.4725 443.916 72.7188C442.763 73.9517 441.311 74.9129 439.561 75.6023C437.824 76.2784 435.842 76.6165 433.615 76.6165Z" fill="white"/>
<path d="M189.997 144V113.455H195.943V144H189.997ZM193 108.741C191.966 108.741 191.078 108.397 190.335 107.707C189.606 107.005 189.241 106.17 189.241 105.202C189.241 104.221 189.606 103.385 190.335 102.696C191.078 101.993 191.966 101.642 193 101.642C194.034 101.642 194.916 101.993 195.645 102.696C196.387 103.385 196.759 104.221 196.759 105.202C196.759 106.17 196.387 107.005 195.645 107.707C194.916 108.397 194.034 108.741 193 108.741ZM209.888 125.864V144H203.942V113.455H209.65V118.426H210.028C210.73 116.809 211.831 115.509 213.329 114.528C214.84 113.547 216.743 113.057 219.036 113.057C221.118 113.057 222.941 113.494 224.505 114.369C226.069 115.231 227.282 116.517 228.144 118.227C229.006 119.937 229.437 122.052 229.437 124.571V144H223.491V125.287C223.491 123.073 222.914 121.343 221.761 120.097C220.607 118.837 219.023 118.207 217.008 118.207C215.629 118.207 214.403 118.506 213.329 119.102C212.268 119.699 211.426 120.574 210.803 121.727C210.193 122.867 209.888 124.246 209.888 125.864ZM250.278 144.616C247.321 144.616 244.776 143.947 242.641 142.608C240.52 141.256 238.889 139.393 237.749 137.02C236.609 134.647 236.039 131.929 236.039 128.866C236.039 125.764 236.622 123.027 237.789 120.653C238.956 118.267 240.6 116.404 242.721 115.065C244.842 113.726 247.341 113.057 250.218 113.057C252.538 113.057 254.606 113.488 256.423 114.349C258.239 115.198 259.704 116.391 260.817 117.929C261.944 119.467 262.614 121.263 262.826 123.318H257.039C256.721 121.886 255.992 120.653 254.852 119.619C253.725 118.585 252.213 118.068 250.317 118.068C248.66 118.068 247.209 118.506 245.962 119.381C244.729 120.242 243.768 121.475 243.079 123.08C242.389 124.67 242.045 126.553 242.045 128.727C242.045 130.955 242.383 132.877 243.059 134.494C243.735 136.112 244.69 137.365 245.923 138.253C247.169 139.141 248.634 139.585 250.317 139.585C251.444 139.585 252.465 139.38 253.38 138.969C254.308 138.545 255.084 137.941 255.707 137.159C256.343 136.377 256.787 135.436 257.039 134.335H262.826C262.614 136.311 261.971 138.074 260.897 139.625C259.823 141.176 258.385 142.396 256.582 143.284C254.792 144.172 252.691 144.616 250.278 144.616ZM269.185 144V113.455H275.131V144H269.185ZM272.188 108.741C271.153 108.741 270.265 108.397 269.523 107.707C268.794 107.005 268.429 106.17 268.429 105.202C268.429 104.221 268.794 103.385 269.523 102.696C270.265 101.993 271.153 101.642 272.188 101.642C273.222 101.642 274.103 101.993 274.832 102.696C275.575 103.385 275.946 104.221 275.946 105.202C275.946 106.17 275.575 107.005 274.832 107.707C274.103 108.397 273.222 108.741 272.188 108.741ZM294.565 144.597C292.099 144.597 289.898 143.967 287.962 142.707C286.04 141.435 284.529 139.625 283.428 137.278C282.341 134.919 281.798 132.088 281.798 128.787C281.798 125.486 282.348 122.662 283.448 120.315C284.562 117.969 286.086 116.172 288.022 114.926C289.958 113.68 292.152 113.057 294.604 113.057C296.5 113.057 298.025 113.375 299.178 114.011C300.345 114.634 301.246 115.364 301.883 116.199C302.532 117.034 303.036 117.77 303.394 118.406H303.752V103.273H309.698V144H303.891V139.247H303.394C303.036 139.897 302.519 140.639 301.843 141.474C301.18 142.31 300.265 143.039 299.099 143.662C297.932 144.285 296.421 144.597 294.565 144.597ZM295.877 139.526C297.587 139.526 299.032 139.075 300.212 138.173C301.406 137.259 302.307 135.992 302.917 134.375C303.54 132.758 303.852 130.875 303.852 128.727C303.852 126.606 303.547 124.75 302.937 123.159C302.327 121.568 301.432 120.329 300.252 119.44C299.072 118.552 297.614 118.108 295.877 118.108C294.087 118.108 292.596 118.572 291.403 119.5C290.21 120.428 289.308 121.694 288.698 123.298C288.102 124.902 287.803 126.712 287.803 128.727C287.803 130.769 288.108 132.605 288.718 134.236C289.328 135.866 290.229 137.159 291.423 138.114C292.629 139.055 294.114 139.526 295.877 139.526ZM331.349 144.616C328.34 144.616 325.748 143.973 323.574 142.688C321.413 141.388 319.742 139.565 318.562 137.219C317.396 134.859 316.812 132.095 316.812 128.926C316.812 125.797 317.396 123.04 318.562 120.653C319.742 118.267 321.386 116.404 323.494 115.065C325.616 113.726 328.095 113.057 330.932 113.057C332.655 113.057 334.326 113.342 335.943 113.912C337.561 114.482 339.012 115.377 340.298 116.597C341.584 117.816 342.598 119.401 343.341 121.349C344.083 123.285 344.455 125.638 344.455 128.409V130.517H320.173V126.062H338.628C338.628 124.498 338.31 123.113 337.673 121.906C337.037 120.687 336.142 119.725 334.989 119.023C333.848 118.32 332.509 117.969 330.972 117.969C329.301 117.969 327.843 118.38 326.597 119.202C325.364 120.01 324.409 121.071 323.733 122.384C323.07 123.683 322.739 125.095 322.739 126.619V130.099C322.739 132.141 323.097 133.878 323.812 135.31C324.542 136.741 325.556 137.835 326.855 138.591C328.154 139.333 329.672 139.705 331.409 139.705C332.536 139.705 333.563 139.545 334.491 139.227C335.42 138.896 336.222 138.405 336.898 137.756C337.574 137.106 338.091 136.304 338.449 135.349L344.077 136.364C343.626 138.021 342.817 139.473 341.651 140.719C340.497 141.952 339.045 142.913 337.295 143.602C335.559 144.278 333.577 144.616 331.349 144.616ZM356.998 125.864V144H351.052V113.455H356.759V118.426H357.137C357.84 116.809 358.94 115.509 360.438 114.528C361.95 113.547 363.852 113.057 366.146 113.057C368.227 113.057 370.05 113.494 371.614 114.369C373.179 115.231 374.392 116.517 375.254 118.227C376.115 119.937 376.546 122.052 376.546 124.571V144H370.6V125.287C370.6 123.073 370.023 121.343 368.87 120.097C367.717 118.837 366.132 118.207 364.117 118.207C362.738 118.207 361.512 118.506 360.438 119.102C359.378 119.699 358.536 120.574 357.913 121.727C357.303 122.867 356.998 124.246 356.998 125.864ZM397.387 144.616C394.431 144.616 391.885 143.947 389.751 142.608C387.629 141.256 385.999 139.393 384.859 137.02C383.719 134.647 383.148 131.929 383.148 128.866C383.148 125.764 383.732 123.027 384.898 120.653C386.065 118.267 387.709 116.404 389.83 115.065C391.951 113.726 394.451 113.057 397.327 113.057C399.647 113.057 401.716 113.488 403.532 114.349C405.348 115.198 406.813 116.391 407.927 117.929C409.054 119.467 409.723 121.263 409.935 123.318H404.148C403.83 121.886 403.101 120.653 401.961 119.619C400.834 118.585 399.323 118.068 397.427 118.068C395.77 118.068 394.318 118.506 393.072 119.381C391.839 120.242 390.878 121.475 390.188 123.08C389.499 124.67 389.154 126.553 389.154 128.727C389.154 130.955 389.492 132.877 390.168 134.494C390.844 136.112 391.799 137.365 393.032 138.253C394.278 139.141 395.743 139.585 397.427 139.585C398.554 139.585 399.575 139.38 400.489 138.969C401.417 138.545 402.193 137.941 402.816 137.159C403.452 136.377 403.897 135.436 404.148 134.335H409.935C409.723 136.311 409.08 138.074 408.006 139.625C406.933 141.176 405.494 142.396 403.691 143.284C401.901 144.172 399.8 144.616 397.387 144.616ZM416.294 144V113.455H422.24V144H416.294ZM419.297 108.741C418.263 108.741 417.375 108.397 416.632 107.707C415.903 107.005 415.538 106.17 415.538 105.202C415.538 104.221 415.903 103.385 416.632 102.696C417.375 101.993 418.263 101.642 419.297 101.642C420.331 101.642 421.213 101.993 421.942 102.696C422.684 103.385 423.055 104.221 423.055 105.202C423.055 106.17 422.684 107.005 421.942 107.707C421.213 108.397 420.331 108.741 419.297 108.741ZM439.129 144.676C437.193 144.676 435.443 144.318 433.879 143.602C432.314 142.873 431.075 141.819 430.16 140.44C429.258 139.062 428.808 137.371 428.808 135.369C428.808 133.646 429.139 132.227 429.802 131.114C430.465 130 431.36 129.118 432.487 128.469C433.613 127.819 434.873 127.329 436.265 126.997C437.657 126.666 439.076 126.414 440.521 126.241C442.35 126.029 443.835 125.857 444.975 125.724C446.115 125.579 446.944 125.347 447.461 125.028C447.978 124.71 448.237 124.193 448.237 123.477V123.338C448.237 121.601 447.746 120.256 446.765 119.301C445.797 118.347 444.352 117.869 442.43 117.869C440.428 117.869 438.85 118.313 437.697 119.202C436.557 120.077 435.768 121.051 435.33 122.125L429.742 120.852C430.405 118.996 431.373 117.498 432.646 116.358C433.932 115.205 435.41 114.369 437.08 113.852C438.751 113.322 440.507 113.057 442.35 113.057C443.57 113.057 444.862 113.203 446.228 113.494C447.607 113.773 448.893 114.29 450.086 115.045C451.292 115.801 452.28 116.882 453.049 118.287C453.818 119.679 454.202 121.489 454.202 123.716V144H448.396V139.824H448.157C447.772 140.593 447.196 141.348 446.427 142.091C445.658 142.833 444.67 143.45 443.464 143.94C442.257 144.431 440.812 144.676 439.129 144.676ZM440.421 139.903C442.065 139.903 443.47 139.579 444.637 138.929C445.817 138.279 446.712 137.431 447.322 136.384C447.945 135.323 448.256 134.189 448.256 132.983V129.045C448.044 129.258 447.633 129.456 447.023 129.642C446.427 129.814 445.744 129.967 444.975 130.099C444.206 130.219 443.457 130.331 442.728 130.438C441.999 130.53 441.389 130.61 440.898 130.676C439.745 130.822 438.691 131.067 437.737 131.412C436.795 131.757 436.04 132.254 435.469 132.903C434.913 133.54 434.634 134.388 434.634 135.449C434.634 136.92 435.178 138.034 436.265 138.79C437.352 139.532 438.737 139.903 440.421 139.903ZM485.011 120.912L479.622 121.866C479.397 121.177 479.039 120.521 478.548 119.898C478.071 119.275 477.421 118.764 476.599 118.366C475.777 117.969 474.75 117.77 473.517 117.77C471.833 117.77 470.428 118.148 469.301 118.903C468.174 119.646 467.611 120.607 467.611 121.787C467.611 122.808 467.989 123.63 468.744 124.253C469.5 124.876 470.72 125.386 472.403 125.784L477.256 126.898C480.066 127.547 482.161 128.548 483.54 129.901C484.919 131.253 485.608 133.009 485.608 135.17C485.608 137 485.078 138.631 484.017 140.062C482.97 141.481 481.505 142.595 479.622 143.403C477.753 144.212 475.585 144.616 473.119 144.616C469.699 144.616 466.908 143.887 464.747 142.429C462.586 140.957 461.26 138.869 460.77 136.165L466.517 135.29C466.875 136.788 467.611 137.921 468.724 138.69C469.838 139.446 471.29 139.824 473.08 139.824C475.028 139.824 476.586 139.42 477.753 138.611C478.92 137.789 479.503 136.788 479.503 135.608C479.503 134.653 479.145 133.851 478.429 133.202C477.726 132.552 476.646 132.062 475.188 131.73L470.017 130.597C467.167 129.947 465.059 128.913 463.693 127.494C462.341 126.076 461.665 124.279 461.665 122.105C461.665 120.302 462.169 118.724 463.176 117.372C464.184 116.02 465.576 114.966 467.352 114.21C469.129 113.441 471.164 113.057 473.457 113.057C476.759 113.057 479.357 113.773 481.253 115.205C483.149 116.623 484.402 118.526 485.011 120.912Z" fill="#A9DFD8"/>
<defs>
<clipPath id="clip0_88_63">
<rect width="132" height="132" fill="white" transform="translate(22 24)"/>
</clipPath>
</defs>
</svg>
